<svg xmlns="http://www.w3.org/2000/svg" viewBox="0 0 338.84 337.81"><defs><style>.cls-1{fill:#f4a924;}</style></defs><g id="Capa_2" data-name="Capa 2"><g id="Capa_1-2" data-name="Capa 1"><path class="cls-1" d="M186,0c4.92,2.12,10.28,2,15.43,2.91,22.74,4.21,50.9,16.26,66.1,28.7a7.85,7.85,0,0,1-5.58,1c-34.74-4.14-59,11.12-70.86,44.72a126.23,126.23,0,0,0-7.34,40.08c-.06,3.64-.75,4.82-4.85,4.06-28.54-5.27-54.63,7.48-68.28,33.05-8.77,16.44-12.53,34.26-14.49,52.58A5.45,5.45,0,0,0,98,212q43.67,42.92,87.26,85.87a8.21,8.21,0,0,0,1.26.76c1.15-7.44,2.08-14.73,3.45-22,3.23-17,8.53-33.24,19.68-46.91,16-19.54,36.91-24.36,60.67-19.63,4.4.88,4.75-.23,4.94-4,1-19.11,4.15-37.74,14.43-54.39,8.85-14.37,21.16-24.09,37.86-28,3.88-.92,5,0,6,3.76,21.58,83.07-24.79,171-105.73,200.33a166.24,166.24,0,0,1-37.76,9.07c-.81.1-1.68.05-2.09,1H150c-2-1.86-4.66-1.42-7-1.78C74.15,325.58,17.77,271.93,3.71,203.64c-1.28-6.24-1-12.78-3.71-18.74v-31c1.82-3.6,1.58-7.6,2.19-11.43C13,73.87,65.84,18.15,133.62,3.73,140.06,2.36,146.72,2.2,153,0Z"/></g></g></svg>